<svg xmlns="http://www.w3.org/2000/svg" xmlns:xlink="http://www.w3.org/1999/xlink" width="506" zoomAndPan="magnify" viewBox="0 0 379.5 191.249993" height="255" preserveAspectRatio="xMidYMid meet" version="1.0"><defs><g/><clipPath id="3761d0b0a8"><path d="M 75.574219 81.28125 L 99.511719 81.28125 L 99.511719 105.21875 L 75.574219 105.21875 Z M 75.574219 81.28125 " clip-rule="nonzero"/></clipPath></defs><g clip-path="url(#3761d0b0a8)"><path fill="#000000" d="M 82.753906 100.433594 C 81.433594 100.433594 80.371094 101.503906 80.371094 102.824219 C 80.371094 104.148438 81.433594 105.21875 82.753906 105.21875 C 84.078125 105.21875 85.148438 104.148438 85.148438 102.824219 C 85.148438 101.503906 84.078125 100.433594 82.753906 100.433594 Z M 75.574219 81.28125 L 75.574219 83.675781 L 77.96875 83.675781 L 82.269531 92.753906 L 80.652344 95.6875 C 80.46875 96.035156 80.359375 96.421875 80.359375 96.839844 C 80.359375 98.164062 81.433594 99.234375 82.753906 99.234375 L 97.117188 99.234375 L 97.117188 96.839844 L 83.261719 96.839844 C 83.097656 96.839844 82.964844 96.710938 82.964844 96.542969 C 82.964844 96.488281 82.976562 96.441406 83 96.398438 L 84.070312 94.449219 L 92.988281 94.449219 C 93.886719 94.449219 94.667969 93.949219 95.082031 93.214844 L 99.363281 85.445312 C 99.457031 85.277344 99.511719 85.082031 99.511719 84.871094 C 99.511719 84.207031 98.972656 83.675781 98.3125 83.675781 L 80.617188 83.675781 L 79.480469 81.28125 Z M 94.722656 100.433594 C 93.402344 100.433594 92.339844 101.503906 92.339844 102.824219 C 92.339844 104.148438 93.402344 105.21875 94.722656 105.21875 C 96.046875 105.21875 97.117188 104.148438 97.117188 102.824219 C 97.117188 101.503906 96.046875 100.433594 94.722656 100.433594 Z M 94.722656 100.433594 " fill-opacity="1" fill-rule="nonzero"/></g><g fill="#000000" fill-opacity="1"><g transform="translate(164.464051, 102.918942)"><g><path d="M 9.359375 0.359375 C 7.703125 0.359375 6.101562 0.132812 4.5625 -0.3125 C 3.019531 -0.757812 1.78125 -1.34375 0.84375 -2.0625 L 2.484375 -5.71875 C 3.378906 -5.0625 4.445312 -4.53125 5.6875 -4.125 C 6.925781 -3.726562 8.160156 -3.53125 9.390625 -3.53125 C 10.765625 -3.53125 11.78125 -3.734375 12.4375 -4.140625 C 13.101562 -4.546875 13.4375 -5.09375 13.4375 -5.78125 C 13.4375 -6.269531 13.238281 -6.679688 12.84375 -7.015625 C 12.457031 -7.347656 11.957031 -7.613281 11.34375 -7.8125 C 10.738281 -8.007812 9.921875 -8.226562 8.890625 -8.46875 C 7.296875 -8.84375 5.988281 -9.21875 4.96875 -9.59375 C 3.945312 -9.976562 3.070312 -10.585938 2.34375 -11.421875 C 1.613281 -12.265625 1.25 -13.382812 1.25 -14.78125 C 1.25 -16 1.578125 -17.097656 2.234375 -18.078125 C 2.898438 -19.066406 3.894531 -19.847656 5.21875 -20.421875 C 6.550781 -21.003906 8.171875 -21.296875 10.078125 -21.296875 C 11.421875 -21.296875 12.726562 -21.132812 14 -20.8125 C 15.28125 -20.5 16.398438 -20.046875 17.359375 -19.453125 L 15.859375 -15.765625 C 13.921875 -16.867188 11.984375 -17.421875 10.046875 -17.421875 C 8.691406 -17.421875 7.691406 -17.195312 7.046875 -16.75 C 6.398438 -16.3125 6.078125 -15.734375 6.078125 -15.015625 C 6.078125 -14.296875 6.445312 -13.757812 7.1875 -13.40625 C 7.9375 -13.0625 9.082031 -12.722656 10.625 -12.390625 C 12.21875 -12.003906 13.519531 -11.625 14.53125 -11.25 C 15.550781 -10.875 16.425781 -10.273438 17.15625 -9.453125 C 17.882812 -8.640625 18.25 -7.535156 18.25 -6.140625 C 18.25 -4.941406 17.914062 -3.847656 17.25 -2.859375 C 16.582031 -1.867188 15.578125 -1.082031 14.234375 -0.5 C 12.898438 0.0703125 11.273438 0.359375 9.359375 0.359375 Z M 9.359375 0.359375 "/></g></g></g><g fill="#000000" fill-opacity="1"><g transform="translate(190.017572, 102.918942)"><g><path d="M 11.796875 0.359375 C 8.796875 0.359375 6.460938 -0.46875 4.796875 -2.125 C 3.128906 -3.78125 2.296875 -6.144531 2.296875 -9.21875 L 2.296875 -20.9375 L 7.15625 -20.9375 L 7.15625 -9.390625 C 7.15625 -5.640625 8.707031 -3.765625 11.8125 -3.765625 C 13.332031 -3.765625 14.488281 -4.21875 15.28125 -5.125 C 16.082031 -6.039062 16.484375 -7.460938 16.484375 -9.390625 L 16.484375 -20.9375 L 21.28125 -20.9375 L 21.28125 -9.21875 C 21.28125 -6.144531 20.445312 -3.78125 18.78125 -2.125 C 17.113281 -0.46875 14.785156 0.359375 11.796875 0.359375 Z M 11.796875 0.359375 "/></g></g></g><g fill="#000000" fill-opacity="1"><g transform="translate(220.059419, 102.918942)"><g><path d="M 11.546875 -20.9375 C 13.398438 -20.9375 15.007812 -20.628906 16.375 -20.015625 C 17.75 -19.398438 18.800781 -18.519531 19.53125 -17.375 C 20.269531 -16.238281 20.640625 -14.894531 20.640625 -13.34375 C 20.640625 -11.8125 20.269531 -10.46875 19.53125 -9.3125 C 18.800781 -8.164062 17.75 -7.289062 16.375 -6.6875 C 15.007812 -6.082031 13.398438 -5.78125 11.546875 -5.78125 L 7.328125 -5.78125 L 7.328125 0 L 2.484375 0 L 2.484375 -20.9375 Z M 11.28125 -9.71875 C 12.738281 -9.71875 13.84375 -10.03125 14.59375 -10.65625 C 15.351562 -11.289062 15.734375 -12.1875 15.734375 -13.34375 C 15.734375 -14.519531 15.351562 -15.421875 14.59375 -16.046875 C 13.84375 -16.679688 12.738281 -17 11.28125 -17 L 7.328125 -17 L 7.328125 -9.71875 Z M 11.28125 -9.71875 "/></g></g></g><g fill="#000000" fill-opacity="1"><g transform="translate(248.425621, 102.918942)"><g><path d="M 18.703125 -3.890625 L 18.703125 0 L 2.484375 0 L 2.484375 -20.9375 L 18.3125 -20.9375 L 18.3125 -17.0625 L 7.296875 -17.0625 L 7.296875 -12.5 L 17.03125 -12.5 L 17.03125 -8.734375 L 7.296875 -8.734375 L 7.296875 -3.890625 Z M 18.703125 -3.890625 "/></g></g></g><g fill="#000000" fill-opacity="1"><g transform="translate(274.966579, 102.918942)"><g><path d="M 15.828125 0 L 11.796875 -5.828125 L 7.328125 -5.828125 L 7.328125 0 L 2.484375 0 L 2.484375 -20.9375 L 11.546875 -20.9375 C 13.398438 -20.9375 15.007812 -20.628906 16.375 -20.015625 C 17.75 -19.398438 18.800781 -18.519531 19.53125 -17.375 C 20.269531 -16.238281 20.640625 -14.894531 20.640625 -13.34375 C 20.640625 -11.789062 20.265625 -10.445312 19.515625 -9.3125 C 18.773438 -8.1875 17.71875 -7.328125 16.34375 -6.734375 L 21.03125 0 Z M 15.734375 -13.34375 C 15.734375 -14.519531 15.351562 -15.421875 14.59375 -16.046875 C 13.84375 -16.679688 12.738281 -17 11.28125 -17 L 7.328125 -17 L 7.328125 -9.6875 L 11.28125 -9.6875 C 12.738281 -9.6875 13.84375 -10.003906 14.59375 -10.640625 C 15.351562 -11.285156 15.734375 -12.1875 15.734375 -13.34375 Z M 15.734375 -13.34375 "/></g></g></g><g fill="#00bf63" fill-opacity="1"><g transform="translate(105.381758, 102.918942)"><g><path d="M 21.546875 0 L 21.515625 -12.5625 L 15.34375 -2.21875 L 13.171875 -2.21875 L 7.03125 -12.296875 L 7.03125 0 L 2.484375 0 L 2.484375 -20.9375 L 6.5 -20.9375 L 14.328125 -7.921875 L 22.046875 -20.9375 L 26.03125 -20.9375 L 26.09375 0 Z M 21.546875 0 "/></g></g></g><g fill="#00bf63" fill-opacity="1"><g transform="translate(140.420604, 102.918942)"><g><path d="M 12.53125 -7.421875 L 12.53125 0 L 7.6875 0 L 7.6875 -7.484375 L -0.421875 -20.9375 L 4.734375 -20.9375 L 10.328125 -11.640625 L 15.921875 -20.9375 L 20.671875 -20.9375 Z M 12.53125 -7.421875 "/></g></g></g><g fill="#a6a6a6" fill-opacity="1"><g transform="translate(258.980341, 113.807293)"><g><path d="M 3.125 -4.28125 C 3.726562 -4.28125 4.21875 -4.078125 4.59375 -3.671875 C 4.96875 -3.273438 5.15625 -2.753906 5.15625 -2.109375 C 5.15625 -1.472656 4.96875 -0.957031 4.59375 -0.5625 C 4.226562 -0.164062 3.742188 0.03125 3.140625 0.03125 C 2.453125 0.03125 1.953125 -0.222656 1.640625 -0.734375 L 1.640625 0 L 0.71875 0 L 0.71875 -5.921875 L 1.640625 -5.921875 L 1.640625 -3.515625 C 1.953125 -4.023438 2.445312 -4.28125 3.125 -4.28125 Z M 2 -1.140625 C 2.238281 -0.878906 2.546875 -0.75 2.921875 -0.75 C 3.304688 -0.75 3.617188 -0.878906 3.859375 -1.140625 C 4.097656 -1.398438 4.21875 -1.734375 4.21875 -2.140625 C 4.21875 -2.535156 4.097656 -2.863281 3.859375 -3.125 C 3.617188 -3.382812 3.304688 -3.515625 2.921875 -3.515625 C 2.546875 -3.515625 2.238281 -3.382812 2 -3.125 C 1.757812 -2.863281 1.640625 -2.535156 1.640625 -2.140625 C 1.640625 -1.734375 1.757812 -1.398438 2 -1.140625 Z M 2 -1.140625 "/></g></g></g><g fill="#a6a6a6" fill-opacity="1"><g transform="translate(264.406272, 113.807293)"><g><path d="M 4.28125 -4.25 L 2.34375 0.578125 C 2.082031 1.253906 1.625 1.59375 0.96875 1.59375 C 0.601562 1.59375 0.273438 1.472656 -0.015625 1.234375 L 0.375 0.515625 C 0.5625 0.660156 0.742188 0.734375 0.921875 0.734375 C 1.210938 0.734375 1.429688 0.570312 1.578125 0.25 L 1.71875 -0.0625 L -0.046875 -4.25 L 0.90625 -4.25 L 2.1875 -1.03125 L 3.359375 -4.25 Z M 4.28125 -4.25 "/></g></g></g><g fill="#a6a6a6" fill-opacity="1"><g transform="translate(268.643279, 113.807293)"><g/></g></g><g fill="#a6a6a6" fill-opacity="1"><g transform="translate(270.701941, 113.807293)"><g><path d="M 5.578125 0 L 4.65625 0 L 1.671875 -4.015625 L 1.671875 0 L 0.734375 0 L 0.734375 -5.59375 L 1.65625 -5.59375 L 4.65625 -1.578125 L 4.65625 -5.59375 L 5.578125 -5.59375 Z M 5.578125 0 "/></g></g></g><g fill="#a6a6a6" fill-opacity="1"><g transform="translate(277.021555, 113.807293)"><g><path d="M 3.21875 0 L 3.21875 -0.515625 C 2.914062 -0.140625 2.453125 0.046875 1.828125 0.046875 C 1.367188 0.046875 1.003906 -0.078125 0.734375 -0.328125 C 0.460938 -0.578125 0.328125 -0.894531 0.328125 -1.28125 C 0.328125 -1.664062 0.46875 -1.972656 0.75 -2.203125 C 1.03125 -2.429688 1.425781 -2.550781 1.9375 -2.5625 L 3.21875 -2.5625 L 3.21875 -2.6875 C 3.21875 -2.957031 3.128906 -3.164062 2.953125 -3.3125 C 2.785156 -3.457031 2.535156 -3.53125 2.203125 -3.53125 C 1.796875 -3.53125 1.378906 -3.390625 0.953125 -3.109375 L 0.578125 -3.75 C 0.898438 -3.9375 1.191406 -4.070312 1.453125 -4.15625 C 1.710938 -4.238281 2.03125 -4.28125 2.40625 -4.28125 C 2.945312 -4.28125 3.363281 -4.144531 3.65625 -3.875 C 3.957031 -3.613281 4.113281 -3.25 4.125 -2.78125 L 4.125 0 Z M 2.015625 -0.6875 C 2.335938 -0.6875 2.609375 -0.757812 2.828125 -0.90625 C 3.054688 -1.0625 3.1875 -1.257812 3.21875 -1.5 L 3.21875 -1.890625 L 2.0625 -1.890625 C 1.757812 -1.890625 1.535156 -1.84375 1.390625 -1.75 C 1.253906 -1.664062 1.1875 -1.519531 1.1875 -1.3125 C 1.1875 -1.125 1.257812 -0.972656 1.40625 -0.859375 C 1.550781 -0.742188 1.753906 -0.6875 2.015625 -0.6875 Z M 2.015625 -0.6875 "/></g></g></g><g fill="#a6a6a6" fill-opacity="1"><g transform="translate(281.697423, 113.807293)"><g><path d="M 2.421875 -4.28125 C 3.179688 -4.28125 3.765625 -4.046875 4.171875 -3.578125 L 3.671875 -3 C 3.347656 -3.320312 2.941406 -3.476562 2.453125 -3.46875 C 2.085938 -3.46875 1.785156 -3.34375 1.546875 -3.09375 C 1.316406 -2.84375 1.203125 -2.515625 1.203125 -2.109375 C 1.203125 -1.710938 1.316406 -1.390625 1.546875 -1.140625 C 1.785156 -0.890625 2.085938 -0.765625 2.453125 -0.765625 C 3.003906 -0.765625 3.425781 -0.929688 3.71875 -1.265625 L 4.21875 -0.765625 C 3.820312 -0.234375 3.222656 0.03125 2.421875 0.03125 C 1.785156 0.03125 1.269531 -0.164062 0.875 -0.5625 C 0.476562 -0.957031 0.28125 -1.472656 0.28125 -2.109375 C 0.28125 -2.753906 0.476562 -3.273438 0.875 -3.671875 C 1.269531 -4.078125 1.785156 -4.28125 2.421875 -4.28125 Z M 2.421875 -4.28125 "/></g></g></g><g fill="#a6a6a6" fill-opacity="1"><g transform="translate(286.197753, 113.807293)"><g><path d="M 2.421875 -4.28125 C 3.148438 -4.28125 3.675781 -4.0625 4 -3.625 C 4.332031 -3.1875 4.472656 -2.566406 4.421875 -1.765625 L 1.203125 -1.765625 C 1.273438 -1.441406 1.425781 -1.179688 1.65625 -0.984375 C 1.894531 -0.796875 2.179688 -0.703125 2.515625 -0.703125 C 2.992188 -0.703125 3.394531 -0.867188 3.71875 -1.203125 L 4.203125 -0.6875 C 3.765625 -0.207031 3.179688 0.03125 2.453125 0.03125 C 1.796875 0.03125 1.269531 -0.164062 0.875 -0.5625 C 0.476562 -0.957031 0.28125 -1.472656 0.28125 -2.109375 C 0.28125 -2.753906 0.476562 -3.273438 0.875 -3.671875 C 1.28125 -4.066406 1.796875 -4.269531 2.421875 -4.28125 Z M 1.1875 -2.4375 L 3.609375 -2.4375 C 3.597656 -2.78125 3.484375 -3.050781 3.265625 -3.25 C 3.054688 -3.445312 2.78125 -3.546875 2.4375 -3.546875 C 2.101562 -3.546875 1.820312 -3.445312 1.59375 -3.25 C 1.375 -3.050781 1.238281 -2.78125 1.1875 -2.4375 Z M 1.1875 -2.4375 "/></g></g></g><g fill="#a6a6a6" fill-opacity="1"><g transform="translate(290.889581, 113.807293)"><g><path d="M 1.125 -6.015625 C 1.289062 -6.015625 1.425781 -5.960938 1.53125 -5.859375 C 1.632812 -5.753906 1.6875 -5.625 1.6875 -5.46875 C 1.6875 -5.300781 1.632812 -5.164062 1.53125 -5.0625 C 1.425781 -4.957031 1.289062 -4.90625 1.125 -4.90625 C 0.96875 -4.90625 0.832031 -4.957031 0.71875 -5.0625 C 0.613281 -5.164062 0.5625 -5.300781 0.5625 -5.46875 C 0.5625 -5.625 0.613281 -5.753906 0.71875 -5.859375 C 0.832031 -5.960938 0.96875 -6.015625 1.125 -6.015625 Z M 1.578125 -4.25 L 1.578125 0.125 C 1.578125 0.59375 1.441406 0.953125 1.171875 1.203125 C 0.898438 1.460938 0.578125 1.59375 0.203125 1.59375 C -0.117188 1.59375 -0.410156 1.492188 -0.671875 1.296875 L -0.375 0.59375 C -0.195312 0.71875 -0.015625 0.78125 0.171875 0.78125 C 0.316406 0.78125 0.4375 0.734375 0.53125 0.640625 C 0.625 0.546875 0.671875 0.398438 0.671875 0.203125 L 0.671875 -4.25 Z M 1.578125 -4.25 "/></g></g></g><g fill="#a6a6a6" fill-opacity="1"><g transform="translate(293.179645, 113.807293)"><g><path d="M 3.21875 0 L 3.21875 -0.515625 C 2.914062 -0.140625 2.453125 0.046875 1.828125 0.046875 C 1.367188 0.046875 1.003906 -0.078125 0.734375 -0.328125 C 0.460938 -0.578125 0.328125 -0.894531 0.328125 -1.28125 C 0.328125 -1.664062 0.46875 -1.972656 0.75 -2.203125 C 1.03125 -2.429688 1.425781 -2.550781 1.9375 -2.5625 L 3.21875 -2.5625 L 3.21875 -2.6875 C 3.21875 -2.957031 3.128906 -3.164062 2.953125 -3.3125 C 2.785156 -3.457031 2.535156 -3.53125 2.203125 -3.53125 C 1.796875 -3.53125 1.378906 -3.390625 0.953125 -3.109375 L 0.578125 -3.75 C 0.898438 -3.9375 1.191406 -4.070312 1.453125 -4.15625 C 1.710938 -4.238281 2.03125 -4.28125 2.40625 -4.28125 C 2.945312 -4.28125 3.363281 -4.144531 3.65625 -3.875 C 3.957031 -3.613281 4.113281 -3.25 4.125 -2.78125 L 4.125 0 Z M 2.015625 -0.6875 C 2.335938 -0.6875 2.609375 -0.757812 2.828125 -0.90625 C 3.054688 -1.0625 3.1875 -1.257812 3.21875 -1.5 L 3.21875 -1.890625 L 2.0625 -1.890625 C 1.757812 -1.890625 1.535156 -1.84375 1.390625 -1.75 C 1.253906 -1.664062 1.1875 -1.519531 1.1875 -1.3125 C 1.1875 -1.125 1.257812 -0.972656 1.40625 -0.859375 C 1.550781 -0.742188 1.753906 -0.6875 2.015625 -0.6875 Z M 2.015625 -0.6875 "/></g></g></g></svg>