<svg xmlns="http://www.w3.org/2000/svg" xmlns:xlink="http://www.w3.org/1999/xlink" width="700" zoomAndPan="magnify" viewBox="0 0 525 216.749995" height="289" preserveAspectRatio="xMidYMid meet" version="1.0"><defs><g/><clipPath id="b444dbaa91"><path d="M 75.214844 84.902344 L 114.480469 84.902344 L 114.480469 124.167969 L 75.214844 124.167969 Z M 75.214844 84.902344 " clip-rule="nonzero"/></clipPath></defs><g clip-path="url(#b444dbaa91)"><path fill="#000000" d="M 86.996094 116.3125 C 84.824219 116.3125 83.089844 118.070312 83.089844 120.238281 C 83.089844 122.410156 84.824219 124.167969 86.996094 124.167969 C 89.164062 124.167969 90.921875 122.410156 90.921875 120.238281 C 90.921875 118.070312 89.164062 116.3125 86.996094 116.3125 Z M 75.214844 84.902344 L 75.214844 88.828125 L 79.140625 88.828125 L 86.199219 103.71875 L 83.550781 108.527344 C 83.246094 109.097656 83.070312 109.734375 83.070312 110.421875 C 83.070312 112.59375 84.824219 114.351562 86.996094 114.351562 L 110.554688 114.351562 L 110.554688 110.421875 L 87.828125 110.421875 C 87.554688 110.421875 87.339844 110.207031 87.339844 109.933594 C 87.339844 109.84375 87.359375 109.765625 87.398438 109.695312 L 89.15625 106.496094 L 103.78125 106.496094 C 105.253906 106.496094 106.539062 105.683594 107.21875 104.476562 L 114.234375 91.734375 C 114.394531 91.457031 114.480469 91.132812 114.480469 90.789062 C 114.480469 89.703125 113.597656 88.828125 112.519531 88.828125 L 83.492188 88.828125 L 81.625 84.902344 Z M 106.628906 116.3125 C 104.457031 116.3125 102.722656 118.070312 102.722656 120.238281 C 102.722656 122.410156 104.457031 124.167969 106.628906 124.167969 C 108.796875 124.167969 110.554688 122.410156 110.554688 120.238281 C 110.554688 118.070312 108.796875 116.3125 106.628906 116.3125 Z M 106.628906 116.3125 " fill-opacity="1" fill-rule="nonzero"/></g><g fill="#000000" fill-opacity="1"><g transform="translate(221.023458, 120.392833)"><g><path d="M 15.359375 0.59375 C 12.640625 0.59375 10.015625 0.222656 7.484375 -0.515625 C 4.953125 -1.253906 2.914062 -2.210938 1.375 -3.390625 L 4.078125 -9.375 C 5.546875 -8.289062 7.296875 -7.421875 9.328125 -6.765625 C 11.359375 -6.117188 13.382812 -5.796875 15.40625 -5.796875 C 17.664062 -5.796875 19.332031 -6.128906 20.40625 -6.796875 C 21.488281 -7.460938 22.03125 -8.351562 22.03125 -9.46875 C 22.03125 -10.289062 21.710938 -10.96875 21.078125 -11.5 C 20.441406 -12.039062 19.625 -12.472656 18.625 -12.796875 C 17.625 -13.128906 16.273438 -13.492188 14.578125 -13.890625 C 11.960938 -14.515625 9.816406 -15.132812 8.140625 -15.75 C 6.472656 -16.375 5.039062 -17.375 3.84375 -18.75 C 2.65625 -20.125 2.0625 -21.957031 2.0625 -24.25 C 2.0625 -26.238281 2.597656 -28.039062 3.671875 -29.65625 C 4.753906 -31.28125 6.382812 -32.566406 8.5625 -33.515625 C 10.738281 -34.460938 13.398438 -34.9375 16.546875 -34.9375 C 18.734375 -34.9375 20.875 -34.675781 22.96875 -34.15625 C 25.0625 -33.632812 26.894531 -32.882812 28.46875 -31.90625 L 26.015625 -25.859375 C 22.835938 -27.660156 19.660156 -28.5625 16.484375 -28.5625 C 14.265625 -28.5625 12.625 -28.203125 11.5625 -27.484375 C 10.5 -26.765625 9.96875 -25.816406 9.96875 -24.640625 C 9.96875 -23.460938 10.578125 -22.585938 11.796875 -22.015625 C 13.023438 -21.441406 14.898438 -20.875 17.421875 -20.3125 C 20.035156 -19.695312 22.175781 -19.078125 23.84375 -18.453125 C 25.519531 -17.828125 26.953125 -16.84375 28.140625 -15.5 C 29.335938 -14.164062 29.9375 -12.351562 29.9375 -10.0625 C 29.9375 -8.09375 29.390625 -6.296875 28.296875 -4.671875 C 27.203125 -3.054688 25.554688 -1.773438 23.359375 -0.828125 C 21.171875 0.117188 18.503906 0.59375 15.359375 0.59375 Z M 15.359375 0.59375 "/></g></g></g><g fill="#000000" fill-opacity="1"><g transform="translate(262.938909, 120.392833)"><g><path d="M 19.34375 0.59375 C 14.425781 0.59375 10.601562 -0.765625 7.875 -3.484375 C 5.144531 -6.203125 3.78125 -10.078125 3.78125 -15.109375 L 3.78125 -34.359375 L 11.734375 -34.359375 L 11.734375 -15.40625 C 11.734375 -9.257812 14.285156 -6.1875 19.390625 -6.1875 C 21.867188 -6.1875 23.765625 -6.929688 25.078125 -8.421875 C 26.390625 -9.910156 27.046875 -12.238281 27.046875 -15.40625 L 27.046875 -34.359375 L 34.890625 -34.359375 L 34.890625 -15.109375 C 34.890625 -10.078125 33.523438 -6.203125 30.796875 -3.484375 C 28.066406 -0.765625 24.25 0.59375 19.34375 0.59375 Z M 19.34375 0.59375 "/></g></g></g><g fill="#000000" fill-opacity="1"><g transform="translate(312.216565, 120.392833)"><g><path d="M 18.9375 -34.359375 C 21.988281 -34.359375 24.632812 -33.847656 26.875 -32.828125 C 29.113281 -31.816406 30.835938 -30.378906 32.046875 -28.515625 C 33.253906 -26.648438 33.859375 -24.441406 33.859375 -21.890625 C 33.859375 -19.367188 33.253906 -17.164062 32.046875 -15.28125 C 30.835938 -13.40625 29.113281 -11.96875 26.875 -10.96875 C 24.632812 -9.96875 21.988281 -9.46875 18.9375 -9.46875 L 12.03125 -9.46875 L 12.03125 0 L 4.078125 0 L 4.078125 -34.359375 Z M 18.5 -15.953125 C 20.882812 -15.953125 22.695312 -16.46875 23.9375 -17.5 C 25.1875 -18.53125 25.8125 -19.992188 25.8125 -21.890625 C 25.8125 -23.816406 25.1875 -25.296875 23.9375 -26.328125 C 22.695312 -27.359375 20.882812 -27.875 18.5 -27.875 L 12.03125 -27.875 L 12.03125 -15.953125 Z M 18.5 -15.953125 "/></g></g></g><g fill="#000000" fill-opacity="1"><g transform="translate(358.745658, 120.392833)"><g><path d="M 30.671875 -6.375 L 30.671875 0 L 4.078125 0 L 4.078125 -34.359375 L 30.03125 -34.359375 L 30.03125 -27.96875 L 11.96875 -27.96875 L 11.96875 -20.515625 L 27.921875 -20.515625 L 27.921875 -14.328125 L 11.96875 -14.328125 L 11.96875 -6.375 Z M 30.671875 -6.375 "/></g></g></g><g fill="#000000" fill-opacity="1"><g transform="translate(402.280803, 120.392833)"><g><path d="M 25.96875 0 L 19.34375 -9.5625 L 12.03125 -9.5625 L 12.03125 0 L 4.078125 0 L 4.078125 -34.359375 L 18.9375 -34.359375 C 21.988281 -34.359375 24.632812 -33.847656 26.875 -32.828125 C 29.113281 -31.816406 30.835938 -30.378906 32.046875 -28.515625 C 33.253906 -26.648438 33.859375 -24.441406 33.859375 -21.890625 C 33.859375 -19.335938 33.242188 -17.132812 32.015625 -15.28125 C 30.796875 -13.4375 29.054688 -12.023438 26.796875 -11.046875 L 34.5 0 Z M 25.8125 -21.890625 C 25.8125 -23.816406 25.1875 -25.296875 23.9375 -26.328125 C 22.695312 -27.359375 20.882812 -27.875 18.5 -27.875 L 12.03125 -27.875 L 12.03125 -15.90625 L 18.5 -15.90625 C 20.882812 -15.90625 22.695312 -16.425781 23.9375 -17.46875 C 25.1875 -18.519531 25.8125 -19.992188 25.8125 -21.890625 Z M 25.8125 -21.890625 "/></g></g></g><g fill="#008000" fill-opacity="1"><g transform="translate(124.110752, 120.392833)"><g><path d="M 35.34375 0 L 35.28125 -20.609375 L 25.171875 -3.625 L 21.59375 -3.625 L 11.53125 -20.171875 L 11.53125 0 L 4.078125 0 L 4.078125 -34.359375 L 10.65625 -34.359375 L 23.515625 -13 L 36.171875 -34.359375 L 42.703125 -34.359375 L 42.796875 0 Z M 35.34375 0 "/></g></g></g><g fill="#008000" fill-opacity="1"><g transform="translate(181.584987, 120.392833)"><g><path d="M 20.5625 -12.171875 L 20.5625 0 L 12.609375 0 L 12.609375 -12.265625 L -0.6875 -34.359375 L 7.75 -34.359375 L 16.9375 -19.09375 L 26.109375 -34.359375 L 33.90625 -34.359375 Z M 20.5625 -12.171875 "/></g></g></g><g fill="#a6a6a6" fill-opacity="1"><g transform="translate(376.058604, 138.252996)"><g><path d="M 5.125 -7.015625 C 6.101562 -7.015625 6.898438 -6.6875 7.515625 -6.03125 C 8.140625 -5.375 8.453125 -4.515625 8.453125 -3.453125 C 8.453125 -2.410156 8.148438 -1.566406 7.546875 -0.921875 C 6.941406 -0.273438 6.140625 0.046875 5.140625 0.046875 C 4.023438 0.046875 3.207031 -0.367188 2.6875 -1.203125 L 2.6875 0 L 1.171875 0 L 1.171875 -9.71875 L 2.6875 -9.71875 L 2.6875 -5.765625 C 3.207031 -6.597656 4.019531 -7.015625 5.125 -7.015625 Z M 3.28125 -1.859375 C 3.675781 -1.441406 4.179688 -1.234375 4.796875 -1.234375 C 5.421875 -1.234375 5.929688 -1.441406 6.328125 -1.859375 C 6.722656 -2.285156 6.921875 -2.835938 6.921875 -3.515625 C 6.921875 -4.160156 6.722656 -4.695312 6.328125 -5.125 C 5.929688 -5.550781 5.421875 -5.765625 4.796875 -5.765625 C 4.179688 -5.765625 3.675781 -5.550781 3.28125 -5.125 C 2.882812 -4.695312 2.6875 -4.160156 2.6875 -3.515625 C 2.6875 -2.835938 2.882812 -2.285156 3.28125 -1.859375 Z M 3.28125 -1.859375 "/></g></g></g><g fill="#a6a6a6" fill-opacity="1"><g transform="translate(384.958763, 138.252996)"><g><path d="M 7.015625 -6.96875 L 3.84375 0.953125 C 3.414062 2.054688 2.660156 2.609375 1.578125 2.609375 C 0.984375 2.609375 0.445312 2.410156 -0.03125 2.015625 L 0.609375 0.84375 C 0.929688 1.070312 1.234375 1.1875 1.515625 1.1875 C 1.984375 1.1875 2.335938 0.929688 2.578125 0.421875 L 2.8125 -0.109375 L -0.0625 -6.96875 L 1.5 -6.96875 L 3.578125 -1.6875 L 5.515625 -6.96875 Z M 7.015625 -6.96875 "/></g></g></g><g fill="#a6a6a6" fill-opacity="1"><g transform="translate(391.908728, 138.252996)"><g/></g></g><g fill="#a6a6a6" fill-opacity="1"><g transform="translate(395.285552, 138.252996)"><g><path d="M 9.15625 0 L 7.640625 0 L 2.75 -6.578125 L 2.75 0 L 1.203125 0 L 1.203125 -9.171875 L 2.71875 -9.171875 L 7.640625 -2.578125 L 7.640625 -9.171875 L 9.15625 -9.171875 Z M 9.15625 0 "/></g></g></g><g fill="#a6a6a6" fill-opacity="1"><g transform="translate(405.651618, 138.252996)"><g><path d="M 5.296875 0 L 5.296875 -0.84375 C 4.796875 -0.238281 4.023438 0.0625 2.984375 0.0625 C 2.242188 0.0625 1.648438 -0.140625 1.203125 -0.546875 C 0.753906 -0.953125 0.53125 -1.46875 0.53125 -2.09375 C 0.53125 -2.726562 0.757812 -3.234375 1.21875 -3.609375 C 1.6875 -3.984375 2.335938 -4.175781 3.171875 -4.1875 L 5.28125 -4.1875 L 5.28125 -4.40625 C 5.28125 -4.84375 5.132812 -5.179688 4.84375 -5.421875 C 4.5625 -5.671875 4.148438 -5.796875 3.609375 -5.796875 C 2.941406 -5.796875 2.257812 -5.5625 1.5625 -5.09375 L 0.9375 -6.140625 C 1.46875 -6.453125 1.945312 -6.675781 2.375 -6.8125 C 2.800781 -6.945312 3.320312 -7.015625 3.9375 -7.015625 C 4.832031 -7.015625 5.523438 -6.796875 6.015625 -6.359375 C 6.503906 -5.929688 6.75 -5.332031 6.75 -4.5625 L 6.765625 0 Z M 3.296875 -1.125 C 3.828125 -1.125 4.28125 -1.25 4.65625 -1.5 C 5.03125 -1.75 5.238281 -2.066406 5.28125 -2.453125 L 5.28125 -3.09375 L 3.390625 -3.09375 C 2.890625 -3.09375 2.523438 -3.019531 2.296875 -2.875 C 2.066406 -2.726562 1.953125 -2.488281 1.953125 -2.15625 C 1.953125 -1.84375 2.070312 -1.59375 2.3125 -1.40625 C 2.550781 -1.21875 2.878906 -1.125 3.296875 -1.125 Z M 3.296875 -1.125 "/></g></g></g><g fill="#a6a6a6" fill-opacity="1"><g transform="translate(413.321448, 138.252996)"><g><path d="M 3.96875 -7.015625 C 5.226562 -7.015625 6.1875 -6.632812 6.84375 -5.875 L 6.015625 -4.90625 C 5.492188 -5.4375 4.832031 -5.703125 4.03125 -5.703125 C 3.425781 -5.703125 2.929688 -5.492188 2.546875 -5.078125 C 2.160156 -4.660156 1.96875 -4.125 1.96875 -3.46875 C 1.96875 -2.8125 2.160156 -2.273438 2.546875 -1.859375 C 2.929688 -1.453125 3.425781 -1.25 4.03125 -1.25 C 4.925781 -1.25 5.613281 -1.523438 6.09375 -2.078125 L 6.921875 -1.25 C 6.265625 -0.382812 5.28125 0.046875 3.96875 0.046875 C 2.925781 0.046875 2.078125 -0.273438 1.421875 -0.921875 C 0.773438 -1.578125 0.453125 -2.425781 0.453125 -3.46875 C 0.453125 -4.519531 0.773438 -5.375 1.421875 -6.03125 C 2.078125 -6.6875 2.925781 -7.015625 3.96875 -7.015625 Z M 3.96875 -7.015625 "/></g></g></g><g fill="#a6a6a6" fill-opacity="1"><g transform="translate(420.703341, 138.252996)"><g><path d="M 3.984375 -7.015625 C 5.179688 -7.015625 6.046875 -6.65625 6.578125 -5.9375 C 7.117188 -5.21875 7.335938 -4.207031 7.234375 -2.90625 L 1.984375 -2.90625 C 2.097656 -2.363281 2.347656 -1.9375 2.734375 -1.625 C 3.117188 -1.320312 3.585938 -1.171875 4.140625 -1.171875 C 4.921875 -1.171875 5.578125 -1.441406 6.109375 -1.984375 L 6.90625 -1.125 C 6.1875 -0.34375 5.222656 0.046875 4.015625 0.046875 C 2.941406 0.046875 2.078125 -0.273438 1.421875 -0.921875 C 0.773438 -1.578125 0.453125 -2.425781 0.453125 -3.46875 C 0.453125 -4.519531 0.78125 -5.367188 1.4375 -6.015625 C 2.09375 -6.671875 2.941406 -7.003906 3.984375 -7.015625 Z M 1.953125 -4 L 5.9375 -4 C 5.90625 -4.5625 5.710938 -5.003906 5.359375 -5.328125 C 5.015625 -5.648438 4.5625 -5.8125 4 -5.8125 C 3.445312 -5.8125 2.988281 -5.648438 2.625 -5.328125 C 2.257812 -5.003906 2.035156 -4.5625 1.953125 -4 Z M 1.953125 -4 "/></g></g></g><g fill="#a6a6a6" fill-opacity="1"><g transform="translate(428.39935, 138.252996)"><g><path d="M 1.84375 -9.875 C 2.113281 -9.875 2.335938 -9.785156 2.515625 -9.609375 C 2.691406 -9.441406 2.78125 -9.222656 2.78125 -8.953125 C 2.78125 -8.691406 2.691406 -8.472656 2.515625 -8.296875 C 2.335938 -8.128906 2.113281 -8.046875 1.84375 -8.046875 C 1.582031 -8.046875 1.363281 -8.128906 1.1875 -8.296875 C 1.007812 -8.472656 0.921875 -8.691406 0.921875 -8.953125 C 0.921875 -9.222656 1.007812 -9.441406 1.1875 -9.609375 C 1.363281 -9.785156 1.582031 -9.875 1.84375 -9.875 Z M 2.59375 -6.96875 L 2.59375 0.203125 C 2.59375 0.972656 2.367188 1.566406 1.921875 1.984375 C 1.472656 2.398438 0.945312 2.609375 0.34375 2.609375 C -0.195312 2.609375 -0.679688 2.453125 -1.109375 2.140625 L -0.609375 0.96875 C -0.316406 1.175781 -0.0195312 1.28125 0.28125 1.28125 C 0.519531 1.28125 0.710938 1.203125 0.859375 1.046875 C 1.015625 0.890625 1.09375 0.65625 1.09375 0.34375 L 1.09375 -6.96875 Z M 2.59375 -6.96875 "/></g></g></g><g fill="#a6a6a6" fill-opacity="1"><g transform="translate(432.155744, 138.252996)"><g><path d="M 5.296875 0 L 5.296875 -0.84375 C 4.796875 -0.238281 4.023438 0.0625 2.984375 0.0625 C 2.242188 0.0625 1.648438 -0.140625 1.203125 -0.546875 C 0.753906 -0.953125 0.53125 -1.46875 0.53125 -2.09375 C 0.53125 -2.726562 0.757812 -3.234375 1.21875 -3.609375 C 1.6875 -3.984375 2.335938 -4.175781 3.171875 -4.1875 L 5.28125 -4.1875 L 5.28125 -4.40625 C 5.28125 -4.84375 5.132812 -5.179688 4.84375 -5.421875 C 4.5625 -5.671875 4.148438 -5.796875 3.609375 -5.796875 C 2.941406 -5.796875 2.257812 -5.5625 1.5625 -5.09375 L 0.9375 -6.140625 C 1.46875 -6.453125 1.945312 -6.675781 2.375 -6.8125 C 2.800781 -6.945312 3.320312 -7.015625 3.9375 -7.015625 C 4.832031 -7.015625 5.523438 -6.796875 6.015625 -6.359375 C 6.503906 -5.929688 6.75 -5.332031 6.75 -4.5625 L 6.765625 0 Z M 3.296875 -1.125 C 3.828125 -1.125 4.28125 -1.25 4.65625 -1.5 C 5.03125 -1.75 5.238281 -2.066406 5.28125 -2.453125 L 5.28125 -3.09375 L 3.390625 -3.09375 C 2.890625 -3.09375 2.523438 -3.019531 2.296875 -2.875 C 2.066406 -2.726562 1.953125 -2.488281 1.953125 -2.15625 C 1.953125 -1.84375 2.070312 -1.59375 2.3125 -1.40625 C 2.550781 -1.21875 2.878906 -1.125 3.296875 -1.125 Z M 3.296875 -1.125 "/></g></g></g></svg>